:FULLY-SPECIFIED
:FORCE-ALL-JOINTS-BE-3DOF
:DEGREES
714
root -11.6096 13.9336 -38.3047 512.782 -60.3958 211.155
lfemur -63.1701 24.9359 0.344191
ltibia 73.986 0 0
lfoot -7.60807 -7.89034 0
ltoes -2.98774 0 0
rfemur 8.6981 -9.60159 11.5488
rtibia 42.2163 0 0
rfoot -25.3045 -27.3186 0
rtoes -23.3941 0 0
lowerback 12.4552 1.44413 8.91939
upperback -1.69542 3.52946 5.73499
thorax -8.69506 1.30154 0.479682
lowerneck -5.13817 4.94802 0.341967
upperneck 4.36634 6.49149 1.65168
head 2.1902 3.28524 0.679076
lclavicle 1.13709e-14 1.04667e-16 0
lhumerus 63.2841 17.3852 109.162
lradius 9.93019 0 0
lwrist -79.7623 0 0
lhand -34.653 37.0188 0
lfingers 7.12502 0 0
lthumb -7.80883 66.9191 0
rclavicle 1.13709e-14 1.04667e-16 0
rhumerus -78.0291 19.0115 -96.1146
rradius 115.887 0 0
rwrist -69.1293 0 0
rhand -13.1054 -45.1059 0
rfingers 7.12502 0 0
rthumb 12.9925 -74.6864 0
715
root -11.6195 13.93 -38.3082 512.566 -60.495 211.38
lfemur -63.2184 24.8717 0.24488
ltibia 74.0324 0 0
lfoot -7.61996 -7.86116 0
ltoes -3.05141 0 0
rfemur 8.61868 -9.674 11.6216
rtibia 42.2433 0 0
rfoot -25.2985 -27.3383 0
rtoes -23.4259 0 0
lowerback 12.4651 1.44593 8.90405
upperback -1.69669 3.53036 5.72751
thorax -8.70255 1.30267 0.479443
lowerneck -5.11002 4.90879 0.320204
upperneck 4.3461 6.43988 1.66344
head 2.18114 3.25919 0.685018
lclavicle 1.14389e-14 -3.05301e-16 0
lhumerus 63.0994 17.1442 108.961
lradius 10.315 0 0
lwrist -79.3402 0 0
lhand -34.4694 36.9414 0
lfingers 7.12502 0 0
lthumb -7.63185 66.8345 0
rclavicle 1.14389e-14 -3.05301e-16 0
rhumerus -77.4872 19.0317 -95.9641
rradius 115.848 0 0
rwrist -68.9497 0 0
rhand -12.8946 -44.8239 0
rfingers 7.12502 0 0
rthumb 13.1948 -74.38 0
716
root -11.6293 13.9264 -38.3117 512.339 -60.6008 211.618
lfemur -63.2729 24.8045 0.138587
ltibia 74.0846 0 0
lfoot -7.63422 -7.83033 0
ltoes -3.11973 0 0
rfemur 8.53622 -9.75112 11.6983
rtibia 42.2692 0 0
rfoot -25.2916 -27.3594 0
rtoes -23.4663 0 0
lowerback 12.4747 1.44775 8.88797
upperback -1.6981 3.53112 5.71972
thorax -8.71007 1.30378 0.479286
lowerneck -5.07904 4.86756 0.298303
upperneck 4.32408 6.38565 1.67465
head 2.17122 3.2318 0.690696
lclavicle 1.15281e-14 -7.63877e-16 0
lhumerus 62.9046 16.8885 108.746
lradius 10.7216 0 0
lwrist -78.8944 0 0
lhand -34.2745 36.8582 0
lfingers 7.12502 0 0
lthumb -7.44393 66.7438 0
rclavicle 1.15281e-14 -7.63877e-16 0
rhumerus -76.9147 19.0529 -95.8056
rradius 115.803 0 0
rwrist -68.7535 0 0
rhand -12.6612 -44.5156 0
rfingers 7.12502 0 0
rthumb 13.4187 -74.045 0
717
root -11.6392 13.9228 -38.3152 512.104 -60.7121 211.867
lfemur -63.3338 24.7358 0.0264409
ltibia 74.1429 0 0
lfoot -7.65127 -7.79831 0
ltoes -3.19203 0 0
rfemur 8.45249 -9.83197 11.7777
rtibia 42.2925 0 0
rfoot -25.2837 -27.3818 0
rtoes -23.5175 0 0
lowerback 12.4836 1.44953 8.87144
upperback -1.69963 3.53166 5.71175
thorax -8.71736 1.30482 0.479249
lowerneck -5.04528 4.82502 0.276992
upperneck 4.3004 6.32971 1.6847
head 2.16046 3.20352 0.69581
lclavicle 1.16432e-14 -1.27319e-15 0
lhumerus 62.7028 16.6215 108.519
lradius 11.1441 0 0
lwrist -78.4316 0 0
lhand -34.0708 36.77 0
lfingers 7.12502 0 0
lthumb -7.24757 66.6477 0
rclavicle 1.16432e-14 -1.27319e-15 0
rhumerus -76.3206 19.0747 -95.6419
rradius 115.754 0 0
rwrist -68.5414 0 0
rhand -12.4052 -44.1821 0
rfingers 7.12502 0 0
rthumb 13.6644 -73.6824 0
718
root -11.649 13.9192 -38.3187 511.864 -60.8276 212.124
lfemur -63.4015 24.6666 -0.0904298
ltibia 74.2074 0 0
lfoot -7.67149 -7.76557 0
ltoes -3.26765 0 0
rfemur 8.36927 -9.91562 11.8584
rtibia 42.3119 0 0
rfoot -25.2747 -27.4053 0
rtoes -23.5812 0 0
lowerback 12.4914 1.45122 8.85475
upperback -1.70128 3.53189 5.70378
thorax -8.72417 1.30574 0.479368
lowerneck -5.00877 4.78188 0.256996
upperneck 4.27517 6.27302 1.69299
head 2.1489 3.17483 0.700057
lclavicle 1.17891e-14 -1.83536e-15 0
lhumerus 62.4972 16.3467 108.284
lradius 11.5761 0 0
lwrist -77.9587 0 0
lhand -33.861 36.6775 0
lfingers 7.12502 0 0
lthumb -7.0453 66.5473 0
rclavicle 1.17891e-14 -1.83536e-15 0
rhumerus -75.7135 19.0969 -95.4756
rradius 115.699 0 0
rwrist -68.3139 0 0
rhand -12.1263 -43.8243 0
rfingers 7.12502 0 0
rthumb 13.9321 -73.2933 0
719
root -11.6589 13.9155 -38.3221 511.623 -60.9461 212.386
lfemur -63.4765 24.5984 -0.210895
ltibia 74.2787 0 0
lfoot -7.69528 -7.73257 0
ltoes -3.34592 0 0
rfemur 8.28833 -10.0011 11.9394
rtibia 42.3259 0 0
rfoot -25.2646 -27.4296 0
rtoes -23.6593 0 0
lowerback 12.4977 1.45275 8.83819
upperback -1.70306 3.53173 5.69596
thorax -8.73024 1.3065 0.47968
lowerneck -4.96954 4.73885 0.23904
upperneck 4.24849 6.21649 1.69891
head 2.13656 3.14618 0.703136
lclavicle 1.19705e-14 -2.45252e-15 0
lhumerus 62.2908 16.0677 108.041
lradius 12.0116 0 0
lwrist -77.4824 0 0
lhand -33.6477 36.5815 0
lfingers 7.12502 0 0
lthumb -6.83964 66.4433 0
rclavicle 1.19705e-14 -2.45252e-15 0
rhumerus -75.1022 19.1191 -95.3093
rradius 115.638 0 0
rwrist -68.0718 0 0
rhand -11.8243 -43.4433 0
rfingers 7.12502 0 0
rthumb 14.2221 -72.8787 0
720
root -11.6687 13.9119 -38.3256 511.385 -61.0662 212.648
lfemur -63.559 24.5324 -0.333826
ltibia 74.3569 0 0
lfoot -7.72303 -7.69977 0
ltoes -3.42618 0 0
rfemur 8.21145 -10.0874 12.0192
rtibia 42.3333 0 0
rfoot -25.2532 -27.4545 0
rtoes -23.7538 0 0
lowerback 12.502 1.45407 8.82206
upperback -1.70496 3.53111 5.68844
thorax -8.7353 1.30704 0.480222
lowerneck -4.92763 4.69663 0.223851
upperneck 4.22049 6.16106 1.70186
head 2.12346 3.11803 0.704746
lclavicle 1.21924e-14 -3.1268e-15 0
lhumerus 62.0867 15.7878 107.794
lradius 12.4445 0 0
lwrist -77.0096 0 0
lhand -33.4335 36.4827 0
lfingers 7.12502 0 0
lthumb -6.63313 66.3367 0
rclavicle 1.21924e-14 -3.1268e-15 0
rhumerus -74.4956 19.1408 -95.1456
rradius 115.571 0 0
rwrist -67.8157 0 0
rhand -11.4989 -43.04 0
rfingers 7.12502 0 0
rthumb 14.5344 -72.4396 0
721
root -11.6786 13.9083 -38.3291 511.154 -61.1869 212.91
lfemur -63.6494 24.4699 -0.458094
ltibia 74.4424 0 0
lfoot -7.75514 -7.66766 0
ltoes -3.50776 0 0
rfemur 8.14041 -10.1737 12.0967
rtibia 42.3326 0 0
rfoot -25.2404 -27.4799 0
rtoes -23.8664 0 0
lowerback 12.5038 1.45513 8.80664
upperback -1.70699 3.52994 5.68137
thorax -8.73912 1.30732 0.48103
lowerneck -4.88306 4.65592 0.212153
upperneck 4.19126 6.10765 1.70122
head 2.10964 3.09086 0.704585
lclavicle 1.24596e-14 -3.86032e-15 0
lhumerus 61.8881 15.5107 107.545
lradius 12.8685 0 0
lwrist -76.5471 0 0
lhand -33.2211 36.3818 0
lfingers 7.12502 0 0
lthumb -6.42827 66.2282 0
rclavicle 1.24596e-14 -3.86032e-15 0
rhumerus -73.9023 19.1617 -94.9872
rradius 115.498 0 0
rwrist -67.5463 0 0
rhand -11.15 -42.6154 0
rfingers 7.12502 0 0
rthumb 14.8695 -71.9772 0
